<svg width="212" height="48" viewBox="0 0 212 48" fill="none" xmlns="http://www.w3.org/2000/svg">
<g filter="url(#filter0_i_50_17)">
<path d="M24.5465 4H187.718L207.264 24L187.718 44H24.5465L5 24L24.5465 4Z" fill="#E99300"/>
</g>
<path d="M24.5465 2.49057H23.9111L23.467 2.94498L3.9205 22.945L2.8894 24L3.9205 25.055L23.467 45.055L23.9111 45.5094H24.5465H187.718H188.353L188.797 45.055L208.344 25.055L209.375 24L208.344 22.945L188.797 2.94498L188.353 2.49057H187.718H24.5465Z" stroke="white" stroke-width="3.01887"/>
<g filter="url(#filter1_d_50_17)">
<path d="M66.7629 22.384C66.7629 23.0347 66.6136 23.632 66.3149 24.176C66.0163 24.7093 65.5576 25.1413 64.9389 25.472C64.3203 25.8027 63.5523 25.968 62.6349 25.968H60.9389V30H58.2029V18.768H62.6349C63.5309 18.768 64.2883 18.9227 64.9069 19.232C65.5256 19.5413 65.9896 19.968 66.2989 20.512C66.6083 21.056 66.7629 21.68 66.7629 22.384ZM62.4269 23.792C62.9496 23.792 63.3389 23.6693 63.5949 23.424C63.8509 23.1787 63.9789 22.832 63.9789 22.384C63.9789 21.936 63.8509 21.5893 63.5949 21.344C63.3389 21.0987 62.9496 20.976 62.4269 20.976H60.9389V23.792H62.4269ZM70.9233 18.16V30H68.1873V18.16H70.9233ZM72.3621 25.52C72.3621 24.6027 72.5327 23.7973 72.8741 23.104C73.2261 22.4107 73.7007 21.8773 74.2981 21.504C74.8954 21.1307 75.5621 20.944 76.2981 20.944C76.9274 20.944 77.4767 21.072 77.9461 21.328C78.4261 21.584 78.7941 21.92 79.0501 22.336V21.072H81.7861V30H79.0501V28.736C78.7834 29.152 78.4101 29.488 77.9301 29.744C77.4607 30 76.9114 30.128 76.2821 30.128C75.5567 30.128 74.8954 29.9413 74.2981 29.568C73.7007 29.184 73.2261 28.6453 72.8741 27.952C72.5327 27.248 72.3621 26.4373 72.3621 25.52ZM79.0501 25.536C79.0501 24.8533 78.8581 24.3147 78.4741 23.92C78.1007 23.5253 77.6421 23.328 77.0981 23.328C76.5541 23.328 76.0901 23.5253 75.7061 23.92C75.3327 24.304 75.1461 24.8373 75.1461 25.52C75.1461 26.2027 75.3327 26.7467 75.7061 27.152C76.0901 27.5467 76.5541 27.744 77.0981 27.744C77.6421 27.744 78.1007 27.5467 78.4741 27.152C78.8581 26.7573 79.0501 26.2187 79.0501 25.536ZM92.8854 21.072L87.2854 34.24H84.3414L86.3894 29.696L82.7574 21.072H85.8134L87.8774 26.656L89.9254 21.072H92.8854ZM101.745 23.344H100.273V30H97.5374V23.344H96.5454V21.072H97.5374V20.816C97.5374 19.7173 97.8521 18.8853 98.4814 18.32C99.1108 17.744 100.033 17.456 101.249 17.456C101.452 17.456 101.601 17.4613 101.697 17.472V19.792C101.175 19.76 100.807 19.8347 100.593 20.016C100.38 20.1973 100.273 20.5227 100.273 20.992V21.072H101.745V23.344ZM107.095 30.128C106.22 30.128 105.431 29.9413 104.727 29.568C104.034 29.1947 103.484 28.6613 103.079 27.968C102.684 27.2747 102.487 26.464 102.487 25.536C102.487 24.6187 102.69 23.8133 103.095 23.12C103.5 22.416 104.055 21.8773 104.759 21.504C105.463 21.1307 106.252 20.944 107.127 20.944C108.002 20.944 108.791 21.1307 109.495 21.504C110.199 21.8773 110.754 22.416 111.159 23.12C111.564 23.8133 111.767 24.6187 111.767 25.536C111.767 26.4533 111.559 27.264 111.143 27.968C110.738 28.6613 110.178 29.1947 109.463 29.568C108.759 29.9413 107.97 30.128 107.095 30.128ZM107.095 27.76C107.618 27.76 108.06 27.568 108.423 27.184C108.796 26.8 108.983 26.2507 108.983 25.536C108.983 24.8213 108.802 24.272 108.439 23.888C108.087 23.504 107.65 23.312 107.127 23.312C106.594 23.312 106.151 23.504 105.799 23.888C105.447 24.2613 105.271 24.8107 105.271 25.536C105.271 26.2507 105.442 26.8 105.783 27.184C106.135 27.568 106.572 27.76 107.095 27.76ZM115.955 22.56C116.275 22.0693 116.675 21.6853 117.155 21.408C117.635 21.12 118.168 20.976 118.755 20.976V23.872H118.003C117.32 23.872 116.808 24.0213 116.467 24.32C116.125 24.608 115.955 25.12 115.955 25.856V30H113.219V21.072H115.955V22.56ZM127.933 23.344H126.461V30H123.725V23.344H122.733V21.072H123.725V20.816C123.725 19.7173 124.04 18.8853 124.669 18.32C125.298 17.744 126.221 17.456 127.437 17.456C127.64 17.456 127.789 17.4613 127.885 17.472V19.792C127.362 19.76 126.994 19.8347 126.781 20.016C126.568 20.1973 126.461 20.5227 126.461 20.992V21.072H127.933V23.344ZM131.955 22.56C132.275 22.0693 132.675 21.6853 133.155 21.408C133.635 21.12 134.168 20.976 134.755 20.976V23.872H134.003C133.32 23.872 132.808 24.0213 132.467 24.32C132.125 24.608 131.955 25.12 131.955 25.856V30H129.219V21.072H131.955V22.56ZM144.478 25.392C144.478 25.648 144.462 25.9147 144.43 26.192H138.238C138.281 26.7467 138.457 27.1733 138.766 27.472C139.086 27.76 139.476 27.904 139.934 27.904C140.617 27.904 141.092 27.616 141.358 27.04H144.27C144.121 27.6267 143.849 28.1547 143.454 28.624C143.07 29.0933 142.585 29.4613 141.998 29.728C141.412 29.9947 140.756 30.128 140.03 30.128C139.156 30.128 138.377 29.9413 137.694 29.568C137.012 29.1947 136.478 28.6613 136.094 27.968C135.71 27.2747 135.518 26.464 135.518 25.536C135.518 24.608 135.705 23.7973 136.078 23.104C136.462 22.4107 136.996 21.8773 137.678 21.504C138.361 21.1307 139.145 20.944 140.03 20.944C140.894 20.944 141.662 21.1253 142.334 21.488C143.006 21.8507 143.529 22.368 143.902 23.04C144.286 23.712 144.478 24.496 144.478 25.392ZM141.678 24.672C141.678 24.2027 141.518 23.8293 141.198 23.552C140.878 23.2747 140.478 23.136 139.998 23.136C139.54 23.136 139.15 23.2693 138.83 23.536C138.521 23.8027 138.329 24.1813 138.254 24.672H141.678ZM154.338 25.392C154.338 25.648 154.322 25.9147 154.29 26.192H148.098C148.14 26.7467 148.316 27.1733 148.626 27.472C148.946 27.76 149.335 27.904 149.794 27.904C150.476 27.904 150.951 27.616 151.218 27.04H154.13C153.98 27.6267 153.708 28.1547 153.314 28.624C152.93 29.0933 152.444 29.4613 151.858 29.728C151.271 29.9947 150.615 30.128 149.89 30.128C149.015 30.128 148.236 29.9413 147.554 29.568C146.871 29.1947 146.338 28.6613 145.954 27.968C145.57 27.2747 145.378 26.464 145.378 25.536C145.378 24.608 145.564 23.7973 145.938 23.104C146.322 22.4107 146.855 21.8773 147.538 21.504C148.22 21.1307 149.004 20.944 149.89 20.944C150.754 20.944 151.522 21.1253 152.194 21.488C152.866 21.8507 153.388 22.368 153.762 23.04C154.146 23.712 154.338 24.496 154.338 25.392ZM151.538 24.672C151.538 24.2027 151.378 23.8293 151.058 23.552C150.738 23.2747 150.338 23.136 149.858 23.136C149.399 23.136 149.01 23.2693 148.69 23.536C148.38 23.8027 148.188 24.1813 148.114 24.672H151.538Z" fill="white"/>
</g>
<defs>
<filter id="filter0_i_50_17" x="0.778809" y="0.981079" width="210.707" height="48.6303" filterUnits="userSpaceOnUse" color-interpolation-filters="sRGB">
<feFlood flood-opacity="0" result="BackgroundImageFix"/>
<feBlend mode="normal" in="SourceGraphic" in2="BackgroundImageFix" result="shape"/>
<feColorMatrix in="SourceAlpha" type="matrix" values="0 0 0 0 0 0 0 0 0 0 0 0 0 0 0 0 0 0 127 0" result="hardAlpha"/>
<feOffset dy="5.18491"/>
<feGaussianBlur stdDeviation="1.29623"/>
<feComposite in2="hardAlpha" operator="arithmetic" k2="-1" k3="1"/>
<feColorMatrix type="matrix" values="0 0 0 0 0 0 0 0 0 0 0 0 0 0 0 0 0 0 0.25 0"/>
<feBlend mode="normal" in2="shape" result="effect1_innerShadow_50_17"/>
</filter>
<filter id="filter1_d_50_17" x="53.2029" y="15.4561" width="106.135" height="26.7839" filterUnits="userSpaceOnUse" color-interpolation-filters="sRGB">
<feFlood flood-opacity="0" result="BackgroundImageFix"/>
<feColorMatrix in="SourceAlpha" type="matrix" values="0 0 0 0 0 0 0 0 0 0 0 0 0 0 0 0 0 0 127 0" result="hardAlpha"/>
<feOffset dy="3"/>
<feGaussianBlur stdDeviation="2.5"/>
<feColorMatrix type="matrix" values="0 0 0 0 0 0 0 0 0 0 0 0 0 0 0 0 0 0 0.24 0"/>
<feBlend mode="normal" in2="BackgroundImageFix" result="effect1_dropShadow_50_17"/>
<feBlend mode="normal" in="SourceGraphic" in2="effect1_dropShadow_50_17" result="shape"/>
</filter>
</defs>
</svg>
